<?xml version="1.0" encoding="utf-8"?>
<!-- Generator: Adobe Illustrator 21.1.0, SVG Export Plug-In . SVG Version: 6.00 Build 0)  -->
<svg version="1.1" id="Слой_1" xmlns="http://www.w3.org/2000/svg" xmlns:xlink="http://www.w3.org/1999/xlink" x="0px" y="0px"
	 viewBox="0 0 272.1 249.4" style="enable-background:new 0 0 272.1 249.4;" xml:space="preserve">
<style type="text/css">
	.st0{fill:#2B823C;}
	.st1{fill:#14BDBB;}
	.st2{fill:#1EBDB0;}
	.st3{fill:#0EBDC2;}
	.st4{fill:#0FBDC1;}
	.st5{fill:#ABC22F;}
	.st6{fill:#97C038;}
	.st7{fill:#A7C231;}
	.st8{fill:#CAC622;}
	.st9{fill:#9FC134;}
	.st10{fill:#B4C32C;}
	.st11{fill:#AAC230;}
	.st12{fill:#A6C232;}
	.st13{fill:#ABC230;}
	.st14{fill:#38BD93;}
	.st15{fill:#16BDB9;}
	.st16{fill:#47BD82;}
	.st17{fill:#5FBD67;}
	.st18{fill:#6FBD55;}
	.st19{fill:#49BD80;}
	.st20{fill:#4ABD7F;}
	.st21{fill:#5CBD6B;}
	.st22{fill:#09BDC8;}
	.st23{fill:#81BD41;}
	.st24{fill:#6BBD59;}
	.st25{fill:#8DBE3C;}
	.st26{fill:#9EC135;}
	.st27{fill:#C8C623;}
	.st28{fill:#D3C71F;}
	.st29{fill:#EDCB14;}
	.st30{fill:#E9CA15;}
	.st31{fill:#F5CC10;}
	.st32{fill:#3EBD8D;}
	.st33{fill:#2DBDA0;}
	.st34{fill:#02BDD0;}
	.st35{fill:#03BDCF;}
	.st36{fill:#06BDCB;}
	.st37{fill:#4CBD7D;}
	.st38{fill:#D4C71E;}
	.st39{fill:#E3C918;}
	.st40{fill:#F7CC0F;}
	.st41{fill:#EACA15;}
	.st42{fill:#7EBD44;}
	.st43{fill:#00BDD2;}
	.st44{fill:#4EBD7A;}
	.st45{fill:#D5C81E;}
	.st46{fill:#F1CB12;}
	.st47{fill:#88BE3E;}
	.st48{fill:#BDC528;}
	.st49{fill:#CDC721;}
	.st50{fill:#DCC81B;}
	.st51{fill:#36BD96;}
	.st52{fill:#12BDBE;}
	.st53{fill:#1FBDAF;}
	.st54{fill:#31BD9B;}
	.st55{fill:#45BD85;}
	.st56{fill:#0DBDC3;}
	.st57{fill:#ECCA14;}
	.st58{fill:#5ABD6D;}
	.st59{fill:#64BD61;}
	.st60{fill:#B2C32C;}
	.st61{fill:#C0C527;}
	.st62{fill:#D6C81D;}
	.st63{fill:#DDC91A;}
	.st64{fill:#C5C625;}
	.st65{fill:#D9C81C;}
	.st66{fill:#F8CC0F;}
	.st67{fill:#56BD71;}
	.st68{fill:#68BD5D;}
	.st69{fill:#75BD4E;}
	.st70{fill:#26BDA7;}
	.st71{fill:#30BD9D;}
	.st72{fill:#32BD9A;}
	.st73{fill:#0BBDC5;}
	.st74{fill:#13BDBC;}
	.st75{fill:#79BD4A;}
	.st76{fill:#7CBD46;}
	.st77{fill:#85BE3F;}
	.st78{fill:#9AC037;}
	.st79{fill:#84BD40;}
	.st80{fill:#8FBF3B;}
	.st81{fill:#A5C232;}
	.st82{fill:#BCC428;}
	.st83{fill:#B3C32C;}
	.st84{fill:#77BD4C;}
	.st85{fill:#83BD40;}
</style>
<g id="Слой_x0020_1">
	<polygon class="st0" points="272,0 0.1,0 0.1,249.4 272,249.4 	"/>
	<polygon class="st1" points="18.4,50.2 39.2,80.2 28.2,45.4 	"/>
	<polygon class="st2" points="28.2,45.4 61.6,20.2 15.9,5.5 	"/>
	<polygon class="st3" points="15.9,5.5 28.2,45.4 7.7,26.5 	"/>
	<polygon class="st4" points="18.4,50.2 28.2,45.4 7.7,26.5 	"/>
	<polygon class="st5" points="193.1,249.4 155.5,231.4 199.6,232.2 200.2,249.4 	"/>
	<polygon class="st6" points="127.6,9.2 152.3,0.6 202.9,64.9 	"/>
	<polygon class="st7" points="152.3,0.6 220.2,31.7 202.9,64.9 	"/>
	<polygon class="st8" points="220.2,31.7 252.5,82.1 202.9,64.9 	"/>
	<polygon class="st9" points="216.2,0 216.4,0.2 152.3,0.6 152.3,0 	"/>
	<polygon class="st10" points="152.3,0.6 216.4,0.2 212.6,5.7 	"/>
	<polygon class="st11" points="152.3,0.6 220.2,31.7 212.6,5.7 	"/>
	<polygon class="st12" points="165.1,108.1 184.9,128.9 185.1,115.3 	"/>
	<polygon class="st13" points="165.1,108.1 202.9,64.9 185.1,115.3 	"/>
	<polygon class="st14" points="28.2,45.4 61.6,20.2 82.6,31.9 	"/>
	<polygon class="st15" points="28.2,45.4 39.2,80.2 82.6,31.9 	"/>
	<polygon class="st16" points="84.9,0 82.6,31.9 61.6,20.2 71.9,0 	"/>
	<polygon class="st17" points="117.9,0 127.6,9.2 82.6,31.9 84.9,0 	"/>
	<polygon class="st18" points="123.6,0 127.6,9.2 117.9,0 	"/>
	<polygon class="st19" points="63.5,162.1 70,181.8 114.5,164 	"/>
	<polygon class="st20" points="63.5,162.1 95.6,136.3 114.5,164 	"/>
	<polygon class="st21" points="70,181.8 117.5,188.8 114.5,164 	"/>
	<polygon class="st22" points="0.1,249.4 0.1,226.4 48.2,249.4 	"/>
	<polygon class="st23" points="82.6,31.9 127.6,9.2 116.6,100.8 	"/>
	<polygon class="st24" points="95.6,136.3 130.9,124.3 116.6,100.8 	"/>
	<polygon class="st25" points="127.6,9.2 202.9,64.9 116.6,100.8 	"/>
	<polygon class="st26" points="165.1,108.1 202.9,64.9 116.6,100.8 	"/>
	<polygon class="st27" points="212.6,5.7 216.4,0.2 246.4,21.4 	"/>
	<polygon class="st28" points="212.6,5.7 220.2,31.7 246.4,21.4 	"/>
	<polygon class="st29" points="220.2,31.7 252.5,82.1 246.4,21.4 	"/>
	<polygon class="st30" points="272,71 252.5,82.1 246.4,21.4 272,42.8 	"/>
	<polygon class="st31" points="272,42.8 246.4,21.4 272,36.5 	"/>
	<polygon class="st32" points="71.9,0 61.6,20.2 62.5,0 	"/>
	<polygon class="st4" points="26.1,0 15.9,5.5 9.6,0 	"/>
	<polygon class="st33" points="62.5,0 61.6,20.2 15.9,5.5 26.1,0 	"/>
	<polygon class="st34" points="9.6,0 15.9,5.5 0.1,5.7 0.1,0 	"/>
	<polygon class="st22" points="0.1,5.7 15.9,5.5 7.7,26.5 0.1,10.9 	"/>
	<polygon class="st35" points="0.1,10.9 7.7,26.5 2.8,27.5 0.1,16.4 	"/>
	<polygon class="st36" points="7.7,26.5 18.4,50.2 2.8,27.5 	"/>
	<polygon class="st37" points="65.6,249.4 70,181.8 111.2,242.3 89.8,249.4 	"/>
	<polygon class="st17" points="70,181.8 117.5,188.8 111.2,242.3 	"/>
	<polygon class="st27" points="200.2,249.4 199.6,232.2 239.9,249.4 	"/>
	<polygon class="st38" points="239.9,249.4 199.6,232.2 228.1,213.1 250,249.4 	"/>
	<polygon class="st39" points="250,249.4 228.1,213.1 272,226.1 272,236.4 259.2,249.4 	"/>
	<polygon class="st40" points="259.2,249.4 272,236.4 272,249.4 	"/>
	<polygon class="st41" points="272,226.1 228.1,213.1 272,203.5 	"/>
	<polygon class="st24" points="111.2,242.3 117.5,188.8 130.5,245.9 	"/>
	<polygon class="st42" points="117.5,188.8 155.5,231.4 130.5,245.9 	"/>
	<polygon class="st25" points="165.8,249.4 130.5,245.9 155.5,231.4 193.1,249.4 	"/>
	<polygon class="st43" points="0.1,32.1 0.1,16.4 2.8,27.5 	"/>
	<polygon class="st35" points="0.1,65.3 0.1,32.1 2.8,27.5 18.4,50.2 	"/>
	<polygon class="st35" points="0.1,89.4 0.1,65.3 18.4,50.2 39.2,80.2 	"/>
	<polygon class="st44" points="82.6,31.9 116.6,100.8 65.2,106.5 	"/>
	<polygon class="st21" points="95.6,136.3 116.6,100.8 65.2,106.5 	"/>
	<polygon class="st45" points="216.4,0.2 246.4,21.4 260.5,16.2 	"/>
	<polygon class="st46" points="272,36.5 246.4,21.4 260.5,16.2 272,27.7 	"/>
	<polygon class="st46" points="272,27.7 260.5,16.2 272,5.7 272,18.5 272,20.4 	"/>
	<polygon class="st47" points="141,249.4 130.5,245.9 165.8,249.4 	"/>
	<polygon class="st48" points="185.1,115.3 202.9,64.9 237.8,106.5 	"/>
	<polygon class="st49" points="202.9,64.9 252.5,82.1 237.8,106.5 	"/>
	<polygon class="st50" points="252.5,82.1 252.7,124.9 237.8,106.5 	"/>
	<polygon class="st51" points="65.2,106.5 82.6,31.9 45.7,91.1 	"/>
	<polygon class="st52" points="0.1,95.3 0.1,89.4 39.2,80.2 45.7,91.1 	"/>
	<polygon class="st53" points="39.2,80.2 82.6,31.9 45.7,91.1 	"/>
	<polygon class="st54" points="45.7,91.1 65.2,106.5 59.3,146.6 	"/>
	<polygon class="st55" points="63.5,162.1 95.6,136.3 59.3,146.6 	"/>
	<polygon class="st55" points="65.2,106.5 95.6,136.3 59.3,146.6 	"/>
	<polygon class="st56" points="0.1,118.6 0.1,95.3 45.7,91.1 59.3,146.6 	"/>
	<polygon class="st43" points="0.1,177 0.1,118.6 59.3,146.6 	"/>
	<polygon class="st57" points="272,120.5 252.7,124.9 252.5,82.1 272,95.7 	"/>
	<polygon class="st46" points="272,95.7 252.5,82.1 272,71 	"/>
	<polygon class="st46" points="272,130.4 260.3,137.5 252.7,124.9 272,120.5 	"/>
	<polygon class="st31" points="272,157.1 260.3,137.5 272,130.4 	"/>
	<polygon class="st58" points="95.6,136.3 114.5,164 114.3,141.3 	"/>
	<polygon class="st59" points="95.6,136.3 130.9,124.3 114.3,141.3 	"/>
	<polygon class="st60" points="184.9,128.9 185.1,115.3 217,128.7 	"/>
	<polygon class="st10" points="184.9,128.9 203.6,159 217,128.7 	"/>
	<polygon class="st61" points="185.1,115.3 237.8,106.5 217,128.7 	"/>
	<polygon class="st62" points="237.8,106.5 252.7,124.9 217,128.7 	"/>
	<polygon class="st63" points="252.7,124.9 260.3,137.5 217,128.7 	"/>
	<polygon class="st64" points="203.6,159 217,128.7 227.7,169.9 	"/>
	<polygon class="st65" points="217,128.7 260.3,137.5 227.7,169.9 	"/>
	<polygon class="st29" points="272,203.5 228.1,213.1 227.7,169.9 272,187.9 	"/>
	<polygon class="st66" points="272,187.9 227.7,169.9 260.3,137.5 272,157.1 	"/>
	<polygon class="st67" points="89.8,249.4 111.2,242.3 107.8,249.4 	"/>
	<polygon class="st68" points="107.8,249.4 111.2,242.3 130.5,245.9 126.9,249.4 	"/>
	<polygon class="st69" points="126.9,249.4 130.5,245.9 141,249.4 	"/>
	<polygon class="st41" points="272,0 272,5.7 260.5,16.2 216.4,0.2 216.6,0 	"/>
	<polygon class="st70" points="59.3,146.6 63.5,162.1 38.1,184.6 	"/>
	<polygon class="st71" points="63.5,162.1 70,181.8 38.1,184.6 	"/>
	<polygon class="st72" points="62.3,249.4 38.1,184.6 70,181.8 65.6,249.4 	"/>
	<polygon class="st15" points="48.2,249.4 0.1,226.4 0.1,210.4 38.1,184.6 62.3,249.4 	"/>
	<polygon class="st73" points="0.1,210.4 0.1,182.3 38.1,184.6 	"/>
	<polygon class="st74" points="0.1,177 59.3,146.6 38.1,184.6 0.1,182.3 	"/>
	<polygon class="st59" points="114.3,141.3 114.5,164 136.8,124.1 	"/>
	<polygon class="st75" points="114.3,141.3 130.9,124.3 136.8,124.1 	"/>
	<polygon class="st23" points="114.5,164 184.9,128.9 136.8,124.1 	"/>
	<polygon class="st76" points="116.6,100.8 130.9,124.3 136.8,124.1 	"/>
	<polygon class="st77" points="116.6,100.8 165.1,108.1 136.8,124.1 	"/>
	<polygon class="st78" points="165.1,108.1 184.9,128.9 136.8,124.1 	"/>
	<polygon class="st79" points="114.5,164 117.5,188.8 184.3,195.7 	"/>
	<polygon class="st11" points="114.5,164 184.9,128.9 184.3,195.7 	"/>
	<polygon class="st80" points="117.5,188.8 155.5,231.4 184.3,195.7 	"/>
	<polygon class="st81" points="155.5,231.4 199.6,232.2 184.3,195.7 	"/>
	<polygon class="st81" points="184.9,128.9 203.6,159 184.3,195.7 	"/>
	<polygon class="st82" points="199.6,232.2 228.1,213.1 184.3,195.7 	"/>
	<polygon class="st83" points="203.6,159 227.7,169.9 184.3,195.7 	"/>
	<polygon class="st11" points="227.7,169.9 228.1,213.1 184.3,195.7 	"/>
	<polygon class="st84" points="131.1,0 127.6,9.2 123.6,0 	"/>
	<polygon class="st85" points="152.1,0 152.3,0.6 127.6,9.2 131.1,0 	"/>
</g>
</svg>
