<svg xmlns="http://www.w3.org/2000/svg" xml:space="preserve" width="96mm" height="88mm" version="1.1" style="shape-rendering:geometricPrecision; text-rendering:geometricPrecision; image-rendering:optimizeQuality; fill-rule:evenodd; clip-rule:evenodd"
viewBox="0 0 1295 1188"
 xmlns:xlink="http://www.w3.org/1999/xlink">
 <defs>
  <style type="text/css">
   <![CDATA[
    .fil43 {fill:#00BDD2}
    .fil34 {fill:#02BDD0}
    .fil35 {fill:#03BDCF}
    .fil36 {fill:#06BDCB}
    .fil22 {fill:#09BDC8}
    .fil73 {fill:#0BBDC5}
    .fil56 {fill:#0DBDC3}
    .fil3 {fill:#0EBDC2}
    .fil4 {fill:#0FBDC1}
    .fil52 {fill:#12BDBE}
    .fil74 {fill:#13BDBC}
    .fil1 {fill:#14BDBB}
    .fil15 {fill:#16BDB9}
    .fil2 {fill:#1EBDB0}
    .fil53 {fill:#1FBDAF}
    .fil70 {fill:#26BDA7}
    .fil33 {fill:#2DBDA0}
    .fil71 {fill:#30BD9D}
    .fil54 {fill:#31BD9B}
    .fil72 {fill:#32BD9A}
    .fil51 {fill:#36BD96}
    .fil14 {fill:#38BD93}
    .fil32 {fill:#3EBD8D}
    .fil55 {fill:#45BD85}
    .fil16 {fill:#47BD82}
    .fil19 {fill:#49BD80}
    .fil20 {fill:#4ABD7F}
    .fil37 {fill:#4CBD7D}
    .fil44 {fill:#4EBD7A}
    .fil67 {fill:#56BD71}
    .fil58 {fill:#5ABD6D}
    .fil21 {fill:#5CBD6B}
    .fil17 {fill:#5FBD67}
    .fil59 {fill:#64BD61}
    .fil68 {fill:#68BD5D}
    .fil24 {fill:#6BBD59}
    .fil18 {fill:#6FBD55}
    .fil69 {fill:#75BD4E}
    .fil84 {fill:#77BD4C}
    .fil75 {fill:#79BD4A}
    .fil76 {fill:#7CBD46}
    .fil42 {fill:#7EBD44}
    .fil23 {fill:#81BD41}
    .fil85 {fill:#83BD40}
    .fil79 {fill:#84BD40}
    .fil77 {fill:#85BE3F}
    .fil47 {fill:#88BE3E}
    .fil25 {fill:#8DBE3C}
    .fil80 {fill:#8FBF3B}
    .fil6 {fill:#97C038}
    .fil78 {fill:#9AC037}
    .fil26 {fill:#9EC135}
    .fil9 {fill:#9FC134}
    .fil81 {fill:#A5C232}
    .fil12 {fill:#A6C232}
    .fil7 {fill:#A7C231}
    .fil11 {fill:#AAC230}
    .fil5 {fill:#ABC22F}
    .fil13 {fill:#ABC230}
    .fil60 {fill:#B2C32C}
    .fil83 {fill:#B3C32C}
    .fil10 {fill:#B4C32C}
    .fil82 {fill:#BCC428}
    .fil48 {fill:#BDC528}
    .fil61 {fill:#C0C527}
    .fil64 {fill:#C5C625}
    .fil27 {fill:#C8C623}
    .fil8 {fill:#CAC622}
    .fil49 {fill:#CDC721}
    .fil28 {fill:#D3C71F}
    .fil38 {fill:#D4C71E}
    .fil45 {fill:#D5C81E}
    .fil62 {fill:#D6C81D}
    .fil65 {fill:#D9C81C}
    .fil50 {fill:#DCC81B}
    .fil63 {fill:#DDC91A}
    .fil39 {fill:#E3C918}
    .fil30 {fill:#E9CA15}
    .fil41 {fill:#EACA15}
    .fil57 {fill:#ECCA14}
    .fil29 {fill:#EDCB14}
    .fil46 {fill:#F1CB12}
    .fil31 {fill:#F5CC10}
    .fil40 {fill:#F7CC0F}
    .fil66 {fill:#F8CC0F}
    .fil0 {fill:#2B823C;fill-rule:nonzero}
   ]]>
  </style>
 </defs>
 <g id="Слой_x0020_1">
  <metadata id="CorelCorpID_0Corel-Layer"/>
  <polygon class="fil0" points="0,1188 1295,1188 1295,0 0,0 "/>
  <polygon class="fil1" points="1208,949 1109,806 1161,972 "/>
  <polygon class="fil2" points="1161,972 1002,1092 1220,1162 "/>
  <polygon class="fil3" points="1220,1162 1161,972 1259,1062 "/>
  <polygon class="fil4" points="1208,949 1161,972 1259,1062 "/>
  <polygon class="fil5" points="376,0 555,86 345,82 342,0 "/>
  <polygon class="fil6" points="688,1144 570,1185 329,879 "/>
  <polygon class="fil7" points="570,1185 247,1037 329,879 "/>
  <polygon class="fil8" points="247,1037 93,797 329,879 "/>
  <polygon class="fil9" points="266,1188 265,1187 570,1185 570,1188 "/>
  <polygon class="fil10" points="570,1185 265,1187 283,1161 "/>
  <polygon class="fil11" points="570,1185 247,1037 283,1161 "/>
  <polygon class="fil12" points="509,673 415,574 414,639 "/>
  <polygon class="fil13" points="509,673 329,879 414,639 "/>
  <polygon class="fil14" points="1161,972 1002,1092 902,1036 "/>
  <polygon class="fil15" points="1161,972 1109,806 902,1036 "/>
  <polygon class="fil16" points="891,1188 902,1036 1002,1092 953,1188 "/>
  <polygon class="fil17" points="734,1188 688,1144 902,1036 891,1188 "/>
  <polygon class="fil18" points="707,1188 688,1144 734,1188 "/>
  <polygon class="fil19" points="993,416 962,322 750,407 "/>
  <polygon class="fil20" points="993,416 840,539 750,407 "/>
  <polygon class="fil21" points="962,322 736,289 750,407 "/>
  <polygon class="fil22" points="1295,0 1295,110 1066,0 "/>
  <polygon class="fil23" points="902,1036 688,1144 740,708 "/>
  <polygon class="fil24" points="840,539 672,596 740,708 "/>
  <polygon class="fil25" points="688,1144 329,879 740,708 "/>
  <polygon class="fil26" points="509,673 329,879 740,708 "/>
  <polygon class="fil27" points="283,1161 265,1187 122,1086 "/>
  <polygon class="fil28" points="283,1161 247,1037 122,1086 "/>
  <polygon class="fil29" points="247,1037 93,797 122,1086 "/>
  <polygon class="fil30" points="0,850 93,797 122,1086 0,984 "/>
  <polygon class="fil31" points="0,984 122,1086 0,1014 "/>
  <polygon class="fil32" points="953,1188 1002,1092 998,1188 "/>
  <polygon class="fil4" points="1171,1188 1220,1162 1250,1188 "/>
  <polygon class="fil33" points="998,1188 1002,1092 1220,1162 1171,1188 "/>
  <polygon class="fil34" points="1250,1188 1220,1162 1295,1161 1295,1188 "/>
  <polygon class="fil22" points="1295,1161 1220,1162 1259,1062 1295,1136 "/>
  <polygon class="fil35" points="1295,1136 1259,1062 1282,1057 1295,1110 "/>
  <polygon class="fil36" points="1259,1062 1208,949 1282,1057 "/>
  <polygon class="fil37" points="983,0 962,322 766,34 868,0 "/>
  <polygon class="fil17" points="962,322 736,289 766,34 "/>
  <polygon class="fil27" points="342,0 345,82 153,0 "/>
  <polygon class="fil38" points="153,0 345,82 209,173 105,0 "/>
  <polygon class="fil39" points="105,0 209,173 0,111 0,62 61,0 "/>
  <polygon class="fil40" points="61,0 0,62 0,0 "/>
  <polygon class="fil41" points="0,111 209,173 0,219 "/>
  <polygon class="fil24" points="766,34 736,289 674,17 "/>
  <polygon class="fil42" points="736,289 555,86 674,17 "/>
  <polygon class="fil25" points="506,0 674,17 555,86 376,0 "/>
  <polygon class="fil43" points="1295,1035 1295,1110 1282,1057 "/>
  <polygon class="fil35" points="1295,877 1295,1035 1282,1057 1208,949 "/>
  <polygon class="fil35" points="1295,762 1295,877 1208,949 1109,806 "/>
  <polygon class="fil44" points="902,1036 740,708 985,681 "/>
  <polygon class="fil21" points="840,539 740,708 985,681 "/>
  <polygon class="fil45" points="265,1187 122,1086 55,1111 "/>
  <polygon class="fil46" points="0,1014 122,1086 55,1111 0,1056 "/>
  <polygon class="fil46" points="0,1056 55,1111 0,1161 0,1100 0,1091 "/>
  <polygon class="fil47" points="624,0 674,17 506,0 "/>
  <polygon class="fil48" points="414,639 329,879 163,681 "/>
  <polygon class="fil49" points="329,879 93,797 163,681 "/>
  <polygon class="fil50" points="93,797 92,593 163,681 "/>
  <polygon class="fil51" points="985,681 902,1036 1078,754 "/>
  <polygon class="fil52" points="1295,734 1295,762 1109,806 1078,754 "/>
  <polygon class="fil53" points="1109,806 902,1036 1078,754 "/>
  <polygon class="fil54" points="1078,754 985,681 1013,490 "/>
  <polygon class="fil55" points="993,416 840,539 1013,490 "/>
  <polygon class="fil55" points="985,681 840,539 1013,490 "/>
  <polygon class="fil56" points="1295,623 1295,734 1078,754 1013,490 "/>
  <polygon class="fil43" points="1295,345 1295,623 1013,490 "/>
  <polygon class="fil57" points="0,614 92,593 93,797 0,732 "/>
  <polygon class="fil46" points="0,732 93,797 0,850 "/>
  <polygon class="fil46" points="0,567 56,533 92,593 0,614 "/>
  <polygon class="fil31" points="0,440 56,533 0,567 "/>
  <polygon class="fil58" points="840,539 750,407 751,515 "/>
  <polygon class="fil59" points="840,539 672,596 751,515 "/>
  <polygon class="fil60" points="415,574 414,639 262,575 "/>
  <polygon class="fil10" points="415,574 326,431 262,575 "/>
  <polygon class="fil61" points="414,639 163,681 262,575 "/>
  <polygon class="fil62" points="163,681 92,593 262,575 "/>
  <polygon class="fil63" points="92,593 56,533 262,575 "/>
  <polygon class="fil64" points="326,431 262,575 211,379 "/>
  <polygon class="fil65" points="262,575 56,533 211,379 "/>
  <polygon class="fil29" points="0,219 209,173 211,379 0,293 "/>
  <polygon class="fil66" points="0,293 211,379 56,533 0,440 "/>
  <polygon class="fil67" points="868,0 766,34 782,0 "/>
  <polygon class="fil68" points="782,0 766,34 674,17 691,0 "/>
  <polygon class="fil69" points="691,0 674,17 624,0 "/>
  <polygon class="fil41" points="0,1188 0,1161 55,1111 265,1187 264,1188 "/>
  <polygon class="fil70" points="1013,490 993,416 1114,309 "/>
  <polygon class="fil71" points="993,416 962,322 1114,309 "/>
  <polygon class="fil72" points="999,0 1114,309 962,322 983,0 "/>
  <polygon class="fil15" points="1066,0 1295,110 1295,186 1114,309 999,0 "/>
  <polygon class="fil73" points="1295,186 1295,320 1114,309 "/>
  <polygon class="fil74" points="1295,345 1013,490 1114,309 1295,320 "/>
  <polygon class="fil59" points="751,515 750,407 644,597 "/>
  <polygon class="fil75" points="751,515 672,596 644,597 "/>
  <polygon class="fil23" points="750,407 415,574 644,597 "/>
  <polygon class="fil76" points="740,708 672,596 644,597 "/>
  <polygon class="fil77" points="740,708 509,673 644,597 "/>
  <polygon class="fil78" points="509,673 415,574 644,597 "/>
  <polygon class="fil79" points="750,407 736,289 418,256 "/>
  <polygon class="fil11" points="750,407 415,574 418,256 "/>
  <polygon class="fil80" points="736,289 555,86 418,256 "/>
  <polygon class="fil81" points="555,86 345,82 418,256 "/>
  <polygon class="fil81" points="415,574 326,431 418,256 "/>
  <polygon class="fil82" points="345,82 209,173 418,256 "/>
  <polygon class="fil83" points="326,431 211,379 418,256 "/>
  <polygon class="fil11" points="211,379 209,173 418,256 "/>
  <polygon class="fil84" points="671,1188 688,1144 707,1188 "/>
  <polygon class="fil85" points="571,1188 570,1185 688,1144 671,1188 "/>
 </g>
</svg>
