<svg version="1.1" id="Слой_1" xmlns="http://www.w3.org/2000/svg" xmlns:xlink="http://www.w3.org/1999/xlink" x="0px" y="0px"
	 viewBox="0 0 6.7 4.5" style="enable-background:new 0 0 6.7 4.5;" xml:space="preserve">
<g transform="translate(0 512) scale(1 -1)">
	<path class="st0" d="M4.3,507.6c-0.1,0.1-0.1,0.3,0,0.4l1.4,1.4H0.3c-0.2,0-0.3,0.1-0.3,0.3c0,0.2,0.1,0.3,0.3,0.3h5.4l-1.4,1.4
		c-0.1,0.1-0.1,0.3,0,0.4c0.1,0.1,0.3,0.1,0.4,0l1.9-1.9c0,0,0-0.1,0.1-0.1s0-0.1,0-0.1c0-0.1,0-0.2-0.1-0.2l-1.9-1.9
		C4.6,507.5,4.4,507.5,4.3,507.6z"/>
</g>
</svg>
