<svg xmlns="http://www.w3.org/2000/svg" xml:space="preserve" width="338.746mm" height="87.3429mm" version="1.1" style="shape-rendering:geometricPrecision; text-rendering:geometricPrecision; image-rendering:optimizeQuality; fill-rule:evenodd; clip-rule:evenodd"
viewBox="0 0 29118 7508"
 xmlns:xlink="http://www.w3.org/1999/xlink">
 <defs>
  <style type="text/css">
   <![CDATA[
    .fil3 {fill:#00A34B}
    .fil0 {fill:#1B3769}
    .fil7 {fill:#3DBAD2}
    .fil5 {fill:#733248}
    .fil2 {fill:#82BA41}
    .fil8 {fill:#86A23F}
    .fil6 {fill:#DA1F43}
    .fil4 {fill:#DA212A}
    .fil1 {fill:#FFCF2A}
   ]]>
  </style>
 </defs>
 <g id="Слой_x0020_1">
  <metadata id="CorelCorpID_0Corel-Layer"/>
  <g id="_1819777755984">
   <path class="fil0" d="M9665 1894c364,0 730,-1 1094,-2 14,493 1,986 7,1479 463,4 927,4 1390,0 6,-493 -7,-988 9,-1481 361,4 721,5 1082,-2 25,1321 6,2642 10,3961 -367,2 -734,7 -1100,-6 0,-498 7,-996 -4,-1493 -460,-2 -919,-2 -1380,-1 -17,498 -5,997 -6,1496 -367,12 -735,7 -1102,5l0 -3955z"/>
   <g>
    <path class="fil0" d="M13781 3569c140,-1191 1437,-1984 2575,-1706 1057,176 1829,1272 1631,2328 -112,888 -870,1550 -1714,1741l-720 0c-1105,-150 -1982,-1243 -1772,-2363l0 0zm1741 -689c-829,299 -838,1639 -32,1975 624,305 1404,-218 1395,-905 88,-715 -678,-1370 -1363,-1071z"/>
   </g>
   <path class="fil0" d="M17758 1893c415,4 831,-6 1248,6 287,446 484,1001 831,1373 265,-457 515,-923 784,-1379 389,-1 779,7 1170,-9 -4,38 -12,116 -16,155 -468,776 -953,1543 -1410,2326 -17,494 3,990 -7,1486 -362,2 -722,-2 -1083,5 -50,-507 24,-1021 -36,-1526 -492,-813 -994,-1619 -1481,-2436z"/>
   <path class="fil0" d="M22198 1888c359,7 719,9 1077,0 50,1000 -40,2010 46,3003 623,-17 1246,-6 1870,-6 3,321 3,643 0,964 -1001,2 -2002,2 -3002,0 5,-1320 -16,-2640 10,-3961z"/>
   <path class="fil0" d="M25442 1858c375,2 750,-14 1125,14 -9,679 -2,1358 -6,2038 -1,260 6,551 186,762 335,387 1106,261 1217,-270 107,-845 -17,-1706 64,-2554 363,14 727,10 1090,9l0 2592c-99,824 -817,1437 -1641,1443l-430 0c-394,-51 -804,-151 -1100,-432 -359,-325 -493,-824 -503,-1294 -10,-769 -5,-1539 -2,-2308z"/>
  </g>
  <path class="fil1" d="M694 71l3050 1502 -1664 830c-647,-514 -1289,-1037 -1927,-1564 -327,-294 -121,-947 541,-768z"/>
  <path class="fil2" d="M7339 835l-3575 2903 -23 18c-549,-440 -1095,-882 -1636,-1333l-26 -21c1566,-781 3133,-1562 4699,-2343 540,-269 931,437 561,776z"/>
  <path class="fil3" d="M275 3321l1804 -918c540,451 1114,913 1662,1353 -156,138 -315,274 -481,402 -6,4 -16,12 -21,16 -128,107 -260,211 -392,314 -4,3 -14,12 -18,15 -239,209 -493,399 -731,609l-13 -7c-605,-309 -1216,-606 -1820,-916 -351,-157 -345,-720 11,-867z"/>
  <path class="fil4" d="M5415 2401l1852 954c307,176 281,684 -40,833l-1824 918 -11 6 -1651 -1354 1674 -1355z"/>
  <path class="fil5" d="M3741 3756l1651 1354 -1691 847 -1604 -845c238,-210 493,-399 731,-609 4,-3 14,-12 18,-15 132,-103 264,-207 392,-314 5,-4 15,-12 21,-16 166,-128 325,-264 481,-402z"/>
  <path class="fil6" d="M2098 5112l1604 845 -2937 1475c-180,101 -427,109 -589,-32 -235,-186 -222,-591 22,-764 628,-511 1268,-1017 1900,-1524z"/>
  <path class="fil7" d="M5393 5110l1895 1524c247,173 259,583 21,768 -142,123 -359,133 -526,57l-3081 -1502 1691 -847z"/>
  <path class="fil8" d="M5415 2401l-1658 1347 -16 9c-549,-440 -1095,-882 -1636,-1333l-26 -21 1664 -830 1672 828z"/>
 </g>
</svg>
