<svg xmlns="http://www.w3.org/2000/svg" xml:space="preserve" width="87.0648mm" height="87.3438mm" version="1.1" style="shape-rendering:geometricPrecision; text-rendering:geometricPrecision; image-rendering:optimizeQuality; fill-rule:evenodd; clip-rule:evenodd"
viewBox="0 0 1024 1028"
 xmlns:xlink="http://www.w3.org/1999/xlink">
 <defs>
  <style type="text/css">
   <![CDATA[
    .fil0 {fill:#00bdd2}
   ]]>
  </style>
 </defs>
 <g id="Слой_x0020_1">
  <metadata id="CorelCorpID_0Corel-Layer"/>
  <path class="fil0" d="M95 10l417 205c138,-69 277,-138 415,-207 74,-37 127,60 77,106l0 0 -264 214 0 0 0 0 -92 74 92 -74 253 131c42,24 38,94 -5,114l-250 126 -1 1 259 208c34,24 35,80 3,105 -19,17 -49,18 -72,8l-422 -206 231 -116 0 0 -231 116 0 0 -402 202c-25,14 -58,15 -81,-4 -32,-25 -30,-81 3,-105 86,-70 174,-139 260,-209l0 0 0 0 -2 -1c-83,-42 -166,-83 -249,-125 -48,-21 -47,-99 2,-119l0 0 247 -126 0 0c-89,-70 -176,-142 -264,-214 -45,-40 -17,-130 74,-105l0 0zm417 504l0 0 0 0 0 0zm-228 -185c28,23 56,47 85,70 -27,-22 -54,-45 -82,-67l-4 -3z"/>
 </g>
</svg>