<?xml version="1.0" encoding="utf-8"?>
<!-- Generator: Adobe Illustrator 21.1.0, SVG Export Plug-In . SVG Version: 6.00 Build 0)  -->
<svg version="1.1" id="Слой_1" xmlns="http://www.w3.org/2000/svg" xmlns:xlink="http://www.w3.org/1999/xlink" x="0px" y="0px"
	 viewBox="0 0 246.7 247.6" style="enable-background:new 0 0 246.7 247.6;" xml:space="preserve">
<style type="text/css">
	.st0{fill:#FFCF2A;}
	.st1{fill:#82BA41;}
	.st2{fill:#00A34B;}
	.st3{fill:#DA212A;}
	.st4{fill:#733248;}
	.st5{fill:#DA1F43;}
	.st6{fill:#3DBAD2;}
	.st7{fill:#86A23F;}
</style>
<g id="Слой_x0020_1">
	<path class="st0" d="M22.9,2.3l100.6,49.5L68.6,79.2C47.3,62.3,26.1,45,5.1,27.7C-5.7,18,1.1-3.6,22.9,2.3z"/>
	<path class="st1" d="M242,27.5l-117.9,95.7l-0.8,0.6c-18.1-14.5-36.1-29.1-53.9-44l-0.9-0.7c51.6-25.8,103.3-51.5,155-77.3
		C241.3-6.9,254.2,16.4,242,27.5z"/>
	<path class="st2" d="M9.1,109.5l59.5-30.3c17.8,14.9,36.7,30.1,54.8,44.6c-5.1,4.6-10.4,9-15.9,13.3c-0.2,0.1-0.5,0.4-0.7,0.5
		c-4.2,3.5-8.6,7-12.9,10.4c-0.1,0.1-0.5,0.4-0.6,0.5c-7.9,6.9-16.3,13.2-24.1,20.1l-0.4-0.2c-20-10.2-40.1-20-60-30.2
		C-2.8,133-2.6,114.4,9.1,109.5L9.1,109.5z"/>
	<path class="st3" d="M178.6,79.2l61.1,31.5c10.1,5.8,9.3,22.6-1.3,27.5l-60.1,30.3l-0.4,0.2l-54.4-44.6L178.6,79.2L178.6,79.2z"/>
	<path class="st4" d="M123.4,123.9l54.4,44.6l-55.8,27.9l-52.9-27.9c7.8-6.9,16.3-13.2,24.1-20.1c0.1-0.1,0.5-0.4,0.6-0.5
		c4.4-3.4,8.7-6.8,12.9-10.4c0.2-0.1,0.5-0.4,0.7-0.5C113,132.9,118.2,128.4,123.4,123.9L123.4,123.9z"/>
	<path class="st5" d="M69.2,168.6l52.9,27.9l-96.9,48.6c-5.9,3.3-14.1,3.6-19.4-1.1c-7.7-6.1-7.3-19.5,0.7-25.2
		C27.2,202,48.4,185.3,69.2,168.6z"/>
	<path class="st6" d="M177.9,168.5l62.5,50.3c8.1,5.7,8.5,19.2,0.7,25.3c-4.7,4.1-11.8,4.4-17.3,1.9l-101.6-49.5L177.9,168.5z"/>
	<path class="st7" d="M178.6,79.2l-54.7,44.4l-0.5,0.3c-18.1-14.5-36.1-29.1-53.9-44l-0.9-0.7l54.9-27.4L178.6,79.2z"/>
</g>
</svg>
