<svg xmlns="http://www.w3.org/2000/svg" xmlns:xlink="http://www.w3.org/1999/xlink" version="1.1" id="Capa_1" x="0px" y="0px" viewBox="0 0 357.218 357.218" style="enable-background:new 0 0 357.218 357.218;" xml:space="preserve" width="512px" height="512px">
<g>
	<g>
		<path d="M343.2,73.609H322v-21.6c0-8-6.4-14.4-14.4-14.4H14.4c-8,0-14.4,6.4-14.4,14.4v217.2c0,8,6.4,14.4,14.4,14.4h21.2v21.6    c0,8,6.4,14.4,14.4,14.4h292.8c8,0,14.4-6.4,14.4-14.4v-216.8C357.6,80.409,351.2,73.609,343.2,73.609z M14.8,51.609l292.8,0.4    v148.4l-65.6-45.6c-2.4-1.6-5.6-1.6-8,0l-58,39.6l-65.6-64.4c-2.8-2.4-6.8-2.8-9.6-0.4l-86.4,71.6L14.8,51.609z M14,269.209v-49.6    l90.8-75.2l65.2,64c2.4,2.4,6.4,2.8,9.2,0.8l58.8-40l69.6,48.4v51.6c0,0,0,0.4-0.4,0.4L14,269.209z M343.2,306.009l-293.2-0.4    v-21.6h257.6c8,0,14.4-6.4,14.4-14.4v-181.6l21.6,0.4L343.2,306.009z" fill="#00bdd2"/>
	</g>
</g>
<g>
	<g>
		<path d="M221.2,74.009c-17.6,0-31.6,14.4-31.6,31.6s14,31.6,31.6,31.6c17.6,0,31.6-14.4,31.6-31.6S238.4,74.009,221.2,74.009z     M221.2,123.209c-9.6,0-17.6-8-17.6-17.6c0-9.6,8-17.6,17.6-17.6c9.6,0,17.6,8,17.6,17.6    C238.8,115.209,230.8,123.209,221.2,123.209z" fill="#00bdd2"/>
	</g>
</g>
</svg>
