<svg version="1.1" id="Capa_1" xmlns="http://www.w3.org/2000/svg" xmlns:xlink="http://www.w3.org/1999/xlink" x="0px" y="0px"
	 viewBox="0 0 512 512" style="enable-background:new 0 0 512 512;" xml:space="preserve" fill="#ffffff">
<g>
	<path class="st0" d="M297.7,307.6c-33.3,0-60.4,27.1-60.4,60.4s27.1,60.4,60.4,60.4S358,401.3,358,368S331,307.6,297.7,307.6z
		 M337.4,368c0,21.9-17.8,39.7-39.7,39.7S258,389.9,258,368s17.8-39.7,39.7-39.7S337.4,346.1,337.4,368z"/>
	<path class="st0" d="M458.1,217.9c0-33.3-27.1-60.4-60.4-60.4s-60.4,27.1-60.4,60.4s27.1,60.4,60.4,60.4S458.1,251.2,458.1,217.9z
		 M437.4,217.9c0,21.9-17.8,39.7-39.7,39.7S358,239.8,358,217.9s17.8-39.7,39.7-39.7S437.4,196,437.4,217.9z"/>
	<path class="st0" d="M45.6,201.2c0,33.3,27.1,60.4,60.4,60.4s60.4-27.1,60.4-60.4s-27.1-60.4-60.4-60.4S45.6,168,45.6,201.2z
		 M105.9,161.6c21.9,0,39.7,17.8,39.7,39.7S127.8,241,105.9,241s-39.7-17.8-39.7-39.7C66.3,179.4,84.1,161.6,105.9,161.6z"/>
	<polygon class="st0" points="514.8,340.5 500.2,325.9 464.4,361.7 428.6,325.9 414,340.5 449.8,376.3 414,412.1 428.6,426.7 
		464.4,390.9 500.2,426.7 514.8,412.1 479,376.3 	"/>
	<polygon class="st0" points="11.8,101.6 47.6,65.8 83.4,101.6 98,87 62.2,51.2 98,15.4 83.4,0.8 47.6,36.6 11.8,0.8 -2.8,15.4 
		33,51.2 -2.8,87 	"/>
	<polygon class="st0" points="395.3,143.3 431.1,107.5 466.9,143.3 481.5,128.7 445.7,92.9 481.5,57.1 466.9,42.5 431.1,78.2 
		395.3,42.5 380.7,57.1 416.5,92.9 380.7,128.7 	"/>
	<path class="st0" d="M284.2,186.2c0.5-10.4,0.2-23.6-5.2-36.9l24.2,12.1l9.3-18.5L260.6,117c-2.7-1.3-5.8-1.4-8.6-0.3
		c-2.8,1.2-4.9,3.4-5.8,6.3l-17.3,51.9l19.6,6.5l9.5-28.5c4.5,8.5,6.2,18.2,5.5,32.3c-1.5,32-12.9,64.3-32.2,90.9
		c-3.8,5.3-8.7,10.4-13.8,15.6c-15.1,15.5-34.5,26.5-55.1,38.2c-27.6,15.7-58.9,33.5-76.9,65c-6.9-2.6-14-3.9-21.4-3.9
		C31,391,3.9,418.1,3.9,451.3s27.1,60.4,60.4,60.4s60.4-27.1,60.4-60.4c0-17.7-7.7-34.4-21.3-45.9c15.1-26.6,42.7-42.3,69.4-57.5
		c20.9-11.9,42.5-24.2,59.6-41.7c5.7-5.8,11.1-11.5,15.8-17.9C269.7,258.5,282.5,222.2,284.2,186.2z M103.9,451.3
		c0,21.9-17.8,39.7-39.7,39.7s-39.7-17.8-39.7-39.7s17.8-39.7,39.7-39.7C86.1,411.7,103.9,429.5,103.9,451.3z"/>
	<path class="st0" d="M192.3,26.5l1.1,1.7l17.5-11l-1.1-1.7c-3.8-6-7-10.8-9.7-14.4l-1.2-1.6l-16.5,12.4l1.2,1.6
		C185.8,16.6,188.9,21.1,192.3,26.5z"/>
	<path class="st0" d="M231.7,98.6c2.7,5.8,4.8,10.7,6.3,14.6l0.7,1.9l19.3-7.2l-0.7-1.9c-1.6-4.3-3.9-9.7-6.9-16.1l-0.8-1.8
		l-18.7,8.7L231.7,98.6z"/>
	<path class="st0" d="M200.8,40.5c2.7,4.6,5.5,9.4,8.2,14.3l1,1.7l18-10.1l-1-1.7c-2.7-4.9-5.6-9.8-8.4-14.7l-1-1.7l-17.8,10.5
		L200.8,40.5z"/>
	<path class="st0" d="M216.9,69.3c2.9,5.5,5.4,10.2,7.6,14.6l0.9,1.8l18.4-9.4l-0.9-1.8c-2.6-5.1-5.2-10.1-7.8-15l-0.9-1.8L216,67.5
		L216.9,69.3z"/>
</g>
</svg>
