<?xml version="1.0" encoding="UTF-8"?>
<!DOCTYPE svg PUBLIC "-//W3C//DTD SVG 1.1//EN" "http://www.w3.org/Graphics/SVG/1.1/DTD/svg11.dtd">
<!-- Creator: CorelDRAW 2017 -->
<svg xmlns="http://www.w3.org/2000/svg" xml:space="preserve" width="1104px" height="985px" version="1.1" style="shape-rendering:geometricPrecision; text-rendering:geometricPrecision; image-rendering:optimizeQuality; fill-rule:evenodd; clip-rule:evenodd"
viewBox="0 0 199.72 178.17"
 xmlns:xlink="http://www.w3.org/1999/xlink">
 <defs>
  <style type="text/css">
   <![CDATA[
    .fil2 {fill:#00006B}
    .fil0 {fill:#00006B;fill-rule:nonzero}
    .fil1 {fill:#BA9241;fill-rule:nonzero}
   ]]>
  </style>
 </defs>
 <g id="Слой_x0020_1">
  <metadata id="CorelCorpID_0Corel-Layer"/>
  <path class="fil0" d="M48.62 54.14l17.08 0c8.67,0 15.24,-1.58 19.45,-4.73 5.25,-3.95 7.88,-10.52 7.88,-19.71 0,-10.25 -2.1,-17.61 -6.31,-21.82 -4.2,-4.2 -11.04,-6.3 -21.02,-6.3l-8.67 0c-2.37,0 -4.47,0.26 -5.52,0.52 -1.32,0.53 -2.1,1.32 -2.37,2.63 -0.26,1.05 -0.52,3.42 -0.52,7.1l0 42.31 0 0zm36.53 63.59l-85.15 0 0 -1.84c12.88,0 20.5,-0.52 23.13,-1.31 1.05,-0.53 1.84,-1.32 2.36,-2.1 0.53,-1.06 0.79,-3.16 0.79,-6.84l0 -93.81c0,-3.42 -0.26,-5.79 -0.79,-6.57 -0.26,-0.53 -1.05,-1.06 -2.36,-1.58 -3.42,-1.31 -11.3,-2.1 -23.13,-2.1l0 -1.58 74.63 0c13.14,0 23.66,3.68 31.54,10.51 6.04,5.78 9.2,11.56 9.2,17.35 0,7.35 -1.84,12.87 -5.52,16.55 -5,5 -14.46,8.41 -28.38,10.51 14.71,1.84 25.22,6.05 32.06,12.62 5.52,5.25 8.41,12.35 8.41,20.76 0,6.83 -3.16,13.14 -9.46,19.18 -7.36,6.84 -16.56,10.25 -27.33,10.25l0 0zm-14.72 -61.75l-21.81 0 0 49.66c0,3.68 0.26,6.05 0.79,7.1 0.26,0.79 1.31,1.58 2.62,2.1 1.58,0.53 3.42,1.05 5.52,1.05 2.37,0.27 7.62,0.27 16.03,0.27 8.67,0 14.98,-2.63 19.19,-7.89 3.94,-4.73 6.04,-11.56 6.04,-19.97 0,-10.25 -2.36,-17.87 -6.83,-23.39 -4.99,-6.04 -12.09,-8.93 -21.55,-8.93l0 0z"/>
  <path class="fil1" d="M177.12 67.8c7.1,-6.31 11.04,-9.72 11.83,-10.51l0 39.68 -1.58 -0.52c-1.57,-10.52 -6.04,-19.45 -13.14,-26.81 -7.36,-7.09 -15.5,-10.77 -24.44,-10.77 -6.3,0 -11.82,1.57 -16.55,4.46 -5.78,3.42 -8.41,8.68 -8.41,15.51 0,6.57 2.89,11.82 9.2,16.03 5.25,3.42 13.66,6.57 24.96,9.2 14.98,3.68 24.7,7.09 29.43,10.51 7.63,5.52 11.3,14.45 11.3,27.33 0,11.83 -3.94,21.29 -11.56,27.86 -6.57,5.51 -14.72,8.4 -23.91,8.4 -7.36,0 -13.67,-1.31 -19.45,-3.41 -5.52,-2.37 -10.51,-6.31 -14.72,-11.56 -7.09,9.46 -11.03,14.45 -11.3,14.97l0 -50.45 1.32 -0.26c2.36,10.51 4.99,18.92 7.88,25.22 2.37,5.52 5.26,9.73 8.67,13.41 6.31,6.83 15.77,10.24 28.12,10.24 5.52,0 10.78,-1.83 15.51,-5.51 5.52,-4.47 8.41,-9.73 8.41,-16.3 0,-8.14 -3.95,-14.45 -11.3,-19.18 -5,-3.15 -13.93,-6.31 -26.55,-9.72 -12.61,-3.42 -21.55,-7.1 -26.54,-10.78 -7.36,-5.52 -11.04,-13.4 -11.04,-23.91 0,-9.46 3.42,-17.35 9.99,-23.92 6.83,-6.57 14.72,-9.72 23.91,-9.72 7.63,0 14.2,1.05 19.19,3.42 1.58,0.78 4.99,3.15 10.77,7.09l0 0z"/>
  <polygon class="fil2" points="199.2,38.63 196.57,38.63 196.57,2.63 129.29,2.63 129.29,0 196.57,0 199.2,0 199.2,2.63 "/>
  <polygon class="fil2" points="0.53,139.54 3.15,139.54 3.15,175.55 70.17,175.55 70.17,178.17 3.15,178.17 0.53,178.17 0.53,175.55 "/>
 </g>
</svg>
